<?xml version="1.0" encoding="UTF-8" standalone="no"?>
<!-- Created with Inkscape (http://www.inkscape.org/) -->

<svg
   width="79.982956mm"
   height="62.364895mm"
   viewBox="0 0 79.982956 62.364895"
   version="1.1"
   id="svg1"
   inkscape:version="1.3 (0e150ed6c4, 2023-07-21)"
   sodipodi:docname="sprig_logo.svg"
   xmlns:inkscape="http://www.inkscape.org/namespaces/inkscape"
   xmlns:sodipodi="http://sodipodi.sourceforge.net/DTD/sodipodi-0.dtd"
   xmlns="http://www.w3.org/2000/svg"
   xmlns:svg="http://www.w3.org/2000/svg">
  <sodipodi:namedview
     id="namedview1"
     pagecolor="#ffffff"
     bordercolor="#000000"
     borderopacity="0.25"
     inkscape:showpageshadow="2"
     inkscape:pageopacity="0.0"
     inkscape:pagecheckerboard="0"
     inkscape:deskcolor="#d1d1d1"
     inkscape:document-units="mm"
     inkscape:zoom="1.0520974"
     inkscape:cx="28.514471"
     inkscape:cy="410.13314"
     inkscape:window-width="2560"
     inkscape:window-height="1377"
     inkscape:window-x="-8"
     inkscape:window-y="-8"
     inkscape:window-maximized="1"
     inkscape:current-layer="layer1" />
  <defs
     id="defs1" />
  <g
     inkscape:label="Layer 1"
     inkscape:groupmode="layer"
     id="layer1"
     transform="translate(-97.631247,-39.952076)">
    <g
       id="g2"
       transform="translate(-25.893697,-90.32194)"
       inkscape:export-filename="sprig_bigsslogo.png"
       inkscape:export-xdpi="600"
       inkscape:export-ydpi="600">
      <g
         id="g21"
         transform="matrix(-1,0,0,1,185.26076,24.397216)"
         inkscape:export-filename="spriglogo.png"
         inkscape:export-xdpi="150"
         inkscape:export-ydpi="150">
        <path
           id="path14"
           style="fill:none;stroke:#000000;stroke-linecap:round;stroke-linejoin:round;paint-order:stroke markers fill"
           d="m 59.978407,118.32219 c -3e-6,6.59725 -5.348133,11.94538 -11.945385,11.94538 -14.896151,0 -11.945373,18.54264 -11.945385,-11.94538 -3e-6,-6.59726 5.348129,-11.94539 11.945385,-11.94539 6.597256,0 11.945388,5.34813 11.945385,11.94539 z"
           sodipodi:nodetypes="sssss" />
        <path
           id="path15"
           style="fill:none;stroke:#000000;stroke-linecap:round;stroke-linejoin:round;paint-order:stroke markers fill"
           d="m 8.8133308,130.51906 c 3e-6,6.59725 5.3481332,11.94538 11.9453852,11.94538 14.896151,0 11.945373,18.54264 11.945385,-11.94538 3e-6,-6.59726 -5.348129,-11.94539 -11.945385,-11.94539 -6.597256,0 -11.9453882,5.34813 -11.9453852,11.94539 z"
           sodipodi:nodetypes="sssss" />
        <path
           id="path16"
           style="fill:none;stroke:#000000;stroke-linecap:round;stroke-linejoin:round;paint-order:stroke markers fill"
           d="m 61.235816,145.48223 c -3e-6,6.59725 -5.348133,11.94538 -11.945385,11.94538 -14.896151,0 -11.945373,18.54264 -11.945385,-11.94538 -3e-6,-6.59726 5.348129,-11.94539 11.945385,-11.94539 6.597256,0 11.945388,5.34813 11.945385,11.94539 z"
           sodipodi:nodetypes="sssss" />
      </g>
      <path
         style="font-weight:200;font-size:22.5778px;line-height:0.7;font-family:'Gorton Perfected';-inkscape-font-specification:'Gorton Perfected Ultra-Light';letter-spacing:-0.79375px;word-spacing:0.227542px;stroke:#000000;stroke-width:0.1;stroke-linecap:round;stroke-linejoin:round;paint-order:stroke markers fill"
         d="m 157.32293,188.18624 q -1.30951,0 -2.34809,-0.29351 -1.03858,-0.29351 -1.71591,-0.83538 -0.92569,-0.76764 -1.2192,-2.09973 -0.0226,-0.24836 0.11289,-0.38383 0.13546,-0.13546 0.31608,-0.13546 0.15805,0 0.22578,0.0677 0.0903,0.0677 0.18062,0.27093 l 0.0677,0.15805 q 0.4064,0.99342 0.97084,1.49013 1.10632,0.97085 3.40925,0.97085 1.98685,0 3.07058,-0.72249 1.08374,-0.72249 1.08374,-2.16747 0,-0.74507 -0.33867,-1.2192 -0.33867,-0.49671 -1.2192,-0.83538 -0.88054,-0.36124 -2.48356,-0.56444 l -0.49671,-0.0677 q -1.71591,-0.22578 -2.68676,-0.63218 -0.97084,-0.4064 -1.37725,-1.03857 -0.4064,-0.65476 -0.4064,-1.62561 0,-1.60302 1.30952,-2.50613 1.33209,-0.92569 3.4544,-0.92569 0.99342,0 1.87396,0.27093 0.90311,0.24836 1.55787,0.74507 0.51929,0.38382 0.85795,0.97084 0.33867,0.56445 0.47414,1.24178 0.0451,0.24836 -0.0903,0.38383 -0.13547,0.13546 -0.33867,0.13546 -0.15805,0 -0.22578,-0.0677 -0.0677,-0.0677 -0.15804,-0.27093 -0.0452,-0.0903 -0.0677,-0.15805 -0.42898,-1.03858 -1.08373,-1.60302 -1.03858,-0.85796 -2.82223,-0.85796 -1.71591,0 -2.75449,0.67734 -1.03858,0.67733 -1.03858,1.91911 0,0.79022 0.36125,1.26436 0.36124,0.47413 1.15146,0.74506 0.81281,0.27094 2.23521,0.47414 h 0.0226 l 0.51929,0.0677 q 1.89654,0.24836 2.93512,0.72249 1.03858,0.47413 1.39982,1.12889 0.38382,0.63218 0.38382,1.55787 0.0226,1.85138 -1.35466,2.79964 -1.35467,0.94827 -3.74792,0.94827 z m 13.11419,0 q -1.64818,0 -2.91254,-0.79022 -1.24178,-0.8128 -1.89653,-2.32551 l 0.0903,-1.49014 q 0.38382,1.71591 1.6256,2.75449 1.26436,1.016 2.98027,1.016 1.35467,0 2.46098,-0.67733 1.12889,-0.67733 1.78364,-1.94169 0.65476,-1.28694 0.65476,-3.048 0,-1.76107 -0.65476,-3.04801 -0.65475,-1.28693 -1.78364,-1.96427 -1.10631,-0.67733 -2.46098,-0.67733 -1.71591,0 -2.98027,1.03858 -1.24178,1.016 -1.6256,2.73191 l -0.0903,-1.49013 q 0.67733,-1.49014 1.91911,-2.30294 1.24178,-0.8128 2.88996,-0.8128 1.64818,0 2.93511,0.79022 1.30951,0.76765 2.05458,2.25778 0.74507,1.46756 0.74507,3.47699 0,1.98684 -0.74507,3.47698 -0.74507,1.46755 -2.05458,2.25778 -1.28693,0.76764 -2.93511,0.76764 z M 165.47,175.18143 q 0.22578,0 0.33867,0.13547 0.13546,0.11289 0.13546,0.38382 v 16.39148 q 0,0.24836 -0.13546,0.36125 -0.11289,0.13546 -0.33867,0.13546 -0.22578,0 -0.36124,-0.13546 -0.11289,-0.11289 -0.11289,-0.36125 v -16.39148 q 0,-0.27093 0.11289,-0.38382 0.13546,-0.13547 0.36124,-0.13547 z m 13.63348,12.9145 q -0.22578,0 -0.36125,-0.13547 -0.11289,-0.11288 -0.11289,-0.38382 v -11.87592 q 0,-0.27093 0.11289,-0.38382 0.13547,-0.13547 0.36125,-0.13547 0.2032,0 0.31609,0.13547 0.13546,0.11289 0.13546,0.38382 v 2.2352 l -0.33867,0.0903 q 0.29352,-1.35467 1.10632,-2.09973 0.83538,-0.74507 2.21262,-0.74507 0.74507,0 1.33209,0.24836 0.58702,0.22577 0.97085,0.67733 0.65475,0.72249 0.65475,1.8288 0,0.24836 -0.11289,0.38382 -0.0903,0.11289 -0.29351,0.11289 -0.2032,0 -0.29351,-0.11289 -0.0903,-0.13546 -0.13547,-0.42897 -0.11288,-0.81281 -0.6096,-1.30952 -0.29351,-0.27093 -0.72249,-0.4064 -0.4064,-0.15804 -0.97084,-0.15804 -1.39982,0 -2.09974,1.08373 -0.69991,1.06116 -0.69991,2.86738 v 7.60872 q 0,0.27094 -0.13546,0.38382 -0.11289,0.13547 -0.31609,0.13547 z m 9.2308,0 q -0.22578,0 -0.36124,-0.13547 -0.11289,-0.11288 -0.11289,-0.38382 v -11.87592 q 0,-0.27093 0.11289,-0.38382 0.13546,-0.13547 0.36124,-0.13547 0.22578,0 0.33867,0.13547 0.13547,0.11289 0.13547,0.38382 v 11.87592 q 0,0.27094 -0.13547,0.38382 -0.13547,0.13547 -0.33867,0.13547 z m 0,-15.84961 q -0.22578,0 -0.38382,-0.11289 -0.13547,-0.13547 -0.13547,-0.42898 v -0.54187 q 0,-0.29351 0.13547,-0.4064 0.15804,-0.13547 0.38382,-0.13547 0.22578,0 0.36125,0.13547 0.15804,0.11289 0.15804,0.4064 v 0.54187 q 0,0.29351 -0.15804,0.42898 -0.13547,0.11289 -0.36125,0.11289 z m 9.52433,20.27486 q -3.1609,0 -4.76392,-0.85796 -1.58045,-0.83537 -1.58045,-2.48355 0,-1.26436 0.83538,-2.03201 0.85796,-0.76764 2.28036,-0.97084 l 0.85796,0.4064 q -1.49014,0.15804 -2.25778,0.8128 -0.74507,0.65476 -0.74507,1.69333 0,1.26436 1.33209,1.91912 1.35467,0.67733 4.064,0.67733 2.28036,0 3.43183,-0.56444 1.15147,-0.56445 1.15147,-1.64818 0,-0.58703 -0.31609,-0.97085 -0.31609,-0.38382 -1.15147,-0.67733 -0.83538,-0.29351 -2.4384,-0.58703 l -2.28036,-0.38382 -0.67733,-0.11289 q -1.17405,-0.2032 -1.85138,-0.4064 -0.65476,-0.2032 -1.03858,-0.56444 -0.36125,-0.36125 -0.36125,-1.016 0,-0.65476 0.4064,-1.10632 0.42898,-0.45155 1.35467,-0.97084 l 0.65476,0.47413 q -0.8128,0.38383 -1.12889,0.72249 -0.31609,0.33867 -0.31609,0.74507 0,0.36124 0.27093,0.58702 0.27093,0.22578 0.90311,0.4064 0.65476,0.15805 1.96427,0.38383 l 2.2352,0.38382 q 1.85138,0.29351 2.88996,0.69991 1.03858,0.4064 1.44498,0.94827 0.42898,0.56444 0.42898,1.35467 0,1.55786 -1.44498,2.34809 -1.4224,0.79022 -4.15431,0.79022 z m -1.3321,-8.66988 q -2.07715,0 -3.09315,-1.2192 -0.99343,-1.24178 -0.99343,-3.09316 0,-1.87395 0.99343,-3.11573 0.99342,-1.24178 3.09315,-1.26436 2.07716,0 3.07059,1.24178 0.99342,1.24178 0.99342,3.11574 0,1.87395 -0.99342,3.11573 -0.97085,1.2192 -3.07059,1.2192 z m 0,-0.76764 q 1.64818,0 2.39325,-1.016 0.74507,-1.016 0.74507,-2.52872 0,-1.53529 -0.74507,-2.55129 -0.74507,-1.016 -2.39325,-1.016 -1.64817,0 -2.39324,1.03858 -0.74507,1.016 -0.74507,2.52871 0,1.51272 0.74507,2.52872 0.74507,1.016 2.39324,1.016 z m 0.69992,-8.46668 q 0.0226,-1.03857 0.6096,-1.58044 0.6096,-0.54187 1.60302,-0.54187 0.76765,0 1.24178,0.33867 0.47413,0.31609 0.67733,0.85795 0.0903,0.27094 0,0.45156 -0.0677,0.18062 -0.27093,0.18062 -0.13547,0 -0.22578,-0.0451 -0.0903,-0.0677 -0.18062,-0.2032 -0.22578,-0.4064 -0.49671,-0.58703 -0.27093,-0.2032 -0.74507,-0.2032 -0.6096,0 -0.99342,0.36125 -0.36125,0.33867 -0.36125,1.03858 v 0.85795 h -0.85795 z"
         id="text1"
         aria-label="sprig" />
    </g>
  </g>
</svg>
